<?xml version="1.0" encoding="utf-8"?>
<!-- Generator: Adobe Illustrator 23.1.0, SVG Export Plug-In . SVG Version: 6.00 Build 0)  -->
<svg version="1.1" id="Capa_1" xmlns="http://www.w3.org/2000/svg" xmlns:xlink="http://www.w3.org/1999/xlink" x="0px" y="0px"
	 viewBox="0 0 128 128" style="enable-background:new 0 0 128 128;" xml:space="preserve">
<style type="text/css">
	.st0{opacity:0.7;}
	.st1{fill:#FFFFFF;}
</style>
<circle class="st0" cx="64" cy="64" r="64"/>
<path class="st1" d="M81.2,72c1.8-3.1,3.1-7,3.3-10.8c0.2-2.5-0.4-5.1-1.6-7.5c-1.9-3.8-5.1-6-8.2-8.1c-2.3-1.6-4.5-3-6.1-5.1
	l-0.3-0.4c-0.9-1.2-1.9-2.6-2.1-3.8c-0.2-1.2-1.2-2-2.4-2c-1.2,0.1-2.1,1.1-2.1,2.3v40.6c-1.9-1.2-4.3-1.9-6.8-1.9
	c-6.3,0-11.4,4.1-11.4,9.1s5.1,9.1,11.4,9.1s11.4-4.1,11.4-9.1V57.9c3.4,1.3,9,4.6,10.6,12.4c-0.3,0.4-0.6,0.9-0.9,1.2
	c-0.8,0.9-0.7,2.4,0.2,3.2c0.9,0.8,2.4,0.7,3.2-0.2c0.6-0.7,1.2-1.5,1.7-2.3C81.1,72.2,81.1,72.1,81.2,72z"/>
</svg>
